<svg xmlns="http://www.w3.org/2000/svg" viewBox="0 0 400 400" width="400" height="400">
  <defs>
    <!-- Radial glow for the monogram -->
    <radialGradient id="glowGrad" cx="50%" cy="50%" r="50%">
      <stop offset="0%" stop-color="#C9A84C" stop-opacity="0.18"/>
      <stop offset="100%" stop-color="#C9A84C" stop-opacity="0"/>
    </radialGradient>

    <!-- Gold gradient for the letters -->
    <linearGradient id="goldGrad" x1="0%" y1="0%" x2="0%" y2="100%">
      <stop offset="0%"   stop-color="#E8C96A"/>
      <stop offset="45%"  stop-color="#C9A84C"/>
      <stop offset="100%" stop-color="#9A7B2E"/>
    </linearGradient>

    <!-- Subtle inner shadow filter -->
    <filter id="softGlow" x="-20%" y="-20%" width="140%" height="140%">
      <feGaussianBlur in="SourceGraphic" stdDeviation="6" result="blur"/>
      <feColorMatrix in="blur" type="matrix"
        values="1 0.8 0 0 0
                0 0.7 0 0 0
                0 0   0 0 0
                0 0   0 0.7 0"
        result="coloredBlur"/>
      <feMerge>
        <feMergeNode in="coloredBlur"/>
        <feMergeNode in="SourceGraphic"/>
      </feMerge>
    </filter>
  </defs>

  <!-- Background: near-black with very subtle warm tint -->
  <rect width="400" height="400" fill="#0D0D0D"/>

  <!-- Subtle circular glow behind monogram -->
  <circle cx="200" cy="200" r="160" fill="url(#glowGrad)"/>

  <!-- Thin decorative circle border — gold, very subtle -->
  <circle cx="200" cy="200" r="155" fill="none" stroke="#C9A84C" stroke-width="0.6" stroke-opacity="0.35"/>
  <circle cx="200" cy="200" r="148" fill="none" stroke="#C9A84C" stroke-width="0.3" stroke-opacity="0.2"/>

  <!-- Four corner diamond ornaments -->
  <!-- Top -->
  <polygon points="200,44 203,50 200,56 197,50" fill="#C9A84C" fill-opacity="0.55"/>
  <!-- Bottom -->
  <polygon points="200,344 203,350 200,356 197,350" fill="#C9A84C" fill-opacity="0.55"/>
  <!-- Left -->
  <polygon points="44,200 50,197 56,200 50,203" fill="#C9A84C" fill-opacity="0.55"/>
  <!-- Right -->
  <polygon points="344,200 350,197 356,200 350,203" fill="#C9A84C" fill-opacity="0.55"/>

  <!-- MW Monogram as path shapes — geometric, clean, readable at all sizes -->
  <!-- Constructed as a pair of connected letterforms, total width ~180px centered -->
  <!--
    M: left edge at x=75, right edge at x=183, height 110→220
    W: left edge at x=183, right edge at x=325, height 110→220
    Stroke width: 13px, with mitered joins for a sharp serif-adjacent look
  -->
  <g filter="url(#softGlow)">
    <!-- M letterform (stroke-based path, clean geometric) -->
    <polyline
      points="80,218  80,118  141,190  202,118  202,218"
      fill="none"
      stroke="url(#goldGrad)"
      stroke-width="13"
      stroke-linecap="square"
      stroke-linejoin="miter"
      stroke-miterlimit="10"
    />

    <!-- W letterform -->
    <polyline
      points="198,118  225,218  259,148  293,218  320,118"
      fill="none"
      stroke="url(#goldGrad)"
      stroke-width="13"
      stroke-linecap="square"
      stroke-linejoin="miter"
      stroke-miterlimit="10"
    />
  </g>

  <!-- Small four-pointed star ornament above — ✦ style -->
  <g transform="translate(200, 88)" fill="#C9A84C" fill-opacity="0.75">
    <polygon points="0,-7 1.5,-1.5 7,0 1.5,1.5 0,7 -1.5,1.5 -7,0 -1.5,-1.5"/>
  </g>

  <!-- Small four-pointed star ornament below -->
  <g transform="translate(200, 312)" fill="#C9A84C" fill-opacity="0.75">
    <polygon points="0,-7 1.5,-1.5 7,0 1.5,1.5 0,7 -1.5,1.5 -7,0 -1.5,-1.5"/>
  </g>
</svg>
