<svg xmlns="http://www.w3.org/2000/svg" width="1080" height="1920" viewBox="0 0 1080 1920">
  <defs>
    <linearGradient id="bg" x1="0" y1="0" x2="1" y2="1">
      <stop offset="0" stop-color="#0c0a06"/>
      <stop offset="0.55" stop-color="#1a1508"/>
      <stop offset="1" stop-color="#251e0a"/>
    </linearGradient>
    <filter id="glow" x="-50%" y="-50%" width="200%" height="200%">
      <feGaussianBlur stdDeviation="18" result="blur"/>
      <feMerge><feMergeNode in="blur"/><feMergeNode in="SourceGraphic"/></feMerge>
    </filter>
  </defs>
  <rect width="1080" height="1920" fill="url(#bg)"/>
  <circle cx="920" cy="240" r="270" fill="#d4a843" opacity="0.16" filter="url(#glow)"/>
  <circle cx="140" cy="1700" r="320" fill="#f0e6c8" opacity="0.10" filter="url(#glow)"/>
  <rect x="78" y="92" width="924" height="1736" rx="54" fill="rgba(255,255,255,0.03)" stroke="rgba(212,168,67,0.22)" stroke-width="1.5"/>
  <text x="120" y="180" fill="#d4a843" font-family="Arial, sans-serif" font-size="34" letter-spacing="7">MEMORYWRAPPED DEMO</text>
  <line x1="120" y1="210" x2="500" y2="210" stroke="#d4a843" stroke-width="1" opacity="0.35"/>
  <text x="960" y="180" fill="#9a8a6a" font-family="Arial, sans-serif" font-size="28" text-anchor="end">12 / 14</text>
  <text x="120" y="298" fill="#9a8a6a" font-family="Arial, sans-serif" font-size="34" letter-spacing="4">KABIR &amp; ANAYA · PAID PACK</text>
  <!-- Decorative open quote large -->
  <text x="110" y="560" fill="#d4a843" font-family="Georgia, serif" font-size="280" font-weight="700" opacity="0.10">"</text>
  <text x="120" y="420" fill="#9a8a6a" font-family="Arial, sans-serif" font-size="36" letter-spacing="5">THE LOVE NOTE TALLY</text>
  <text x="120" y="516" fill="#fdf6e3" font-family="Georgia, serif" font-size="76" font-weight="600">
    <tspan x="120" dy="0">The love</tspan>
    <tspan x="120" dy="94">note tally</tspan>
  </text>
  <text x="120" y="800" fill="#d4a843" font-family="Georgia, serif" font-size="152" font-weight="700">187</text>
  <text x="120" y="908" fill="#f0e6c8" font-family="Georgia, serif" font-size="58">'I love you'</text>
  <line x1="120" y1="968" x2="960" y2="968" stroke="#d4a843" stroke-width="1" opacity="0.22"/>
  <text x="120" y="1110" fill="#e8d5a3" font-family="Arial, sans-serif" font-size="44">
    <tspan x="120" dy="0">Not counting the ones</tspan>
    <tspan x="120" dy="62">hidden inside food</tspan>
    <tspan x="120" dy="62">debates, venue arguments,</tspan>
    <tspan x="120" dy="62">and goodnight rituals.</tspan>
  </text>
  <!-- Small tally marks decorative -->
  <line x1="120" y1="1400" x2="120" y2="1460" stroke="#d4a843" stroke-width="3" opacity="0.4"/>
  <line x1="150" y1="1400" x2="150" y2="1460" stroke="#d4a843" stroke-width="3" opacity="0.4"/>
  <line x1="180" y1="1400" x2="180" y2="1460" stroke="#d4a843" stroke-width="3" opacity="0.4"/>
  <line x1="210" y1="1400" x2="210" y2="1460" stroke="#d4a843" stroke-width="3" opacity="0.4"/>
  <line x1="118" y1="1462" x2="218" y2="1398" stroke="#d4a843" stroke-width="3" opacity="0.4"/>
  <line x1="250" y1="1400" x2="250" y2="1460" stroke="#d4a843" stroke-width="3" opacity="0.4"/>
  <line x1="280" y1="1400" x2="280" y2="1460" stroke="#d4a843" stroke-width="3" opacity="0.4"/>
  <line x1="310" y1="1400" x2="310" y2="1460" stroke="#d4a843" stroke-width="3" opacity="0.4"/>
  <line x1="340" y1="1400" x2="340" y2="1460" stroke="#d4a843" stroke-width="3" opacity="0.4"/>
  <line x1="248" y1="1462" x2="348" y2="1398" stroke="#d4a843" stroke-width="3" opacity="0.4"/>
  <text x="380" y="1460" fill="#9a8a6a" font-family="Arial, sans-serif" font-size="34">+ many more</text>
  <text x="120" y="1740" fill="#9a8a6a" font-family="Arial, sans-serif" font-size="28">Synthetic demo · private by default · quotes need approval</text>
  <text x="960" y="1800" fill="#9a8a6a" font-family="Arial, sans-serif" font-size="26" text-anchor="end">memorywrapped.in</text>
</svg>
