<svg xmlns="http://www.w3.org/2000/svg" width="1080" height="1920" viewBox="0 0 1080 1920">
  <defs>
    <linearGradient id="bg" x1="0" y1="0" x2="1" y2="1">
      <stop offset="0" stop-color="#0c0a06"/>
      <stop offset="0.55" stop-color="#1a1508"/>
      <stop offset="1" stop-color="#251e0a"/>
    </linearGradient>
    <filter id="glow" x="-50%" y="-50%" width="200%" height="200%">
      <feGaussianBlur stdDeviation="18" result="blur"/>
      <feMerge><feMergeNode in="blur"/><feMergeNode in="SourceGraphic"/></feMerge>
    </filter>
  </defs>
  <rect width="1080" height="1920" fill="url(#bg)"/>
  <circle cx="920" cy="240" r="270" fill="#d4a843" opacity="0.16" filter="url(#glow)"/>
  <circle cx="140" cy="1700" r="320" fill="#f0e6c8" opacity="0.10" filter="url(#glow)"/>
  <rect x="78" y="92" width="924" height="1736" rx="54" fill="rgba(255,255,255,0.03)" stroke="rgba(212,168,67,0.22)" stroke-width="1.5"/>
  <text x="120" y="180" fill="#d4a843" font-family="Arial, sans-serif" font-size="34" letter-spacing="7">MEMORYWRAPPED DEMO</text>
  <line x1="120" y1="210" x2="500" y2="210" stroke="#d4a843" stroke-width="1" opacity="0.35"/>
  <text x="960" y="180" fill="#9a8a6a" font-family="Arial, sans-serif" font-size="28" text-anchor="end">01 / 14</text>
  <text x="120" y="298" fill="#9a8a6a" font-family="Arial, sans-serif" font-size="34" letter-spacing="4">KABIR &amp; ANAYA · PAID PACK</text>
  <!-- Award badge graphic -->
  <polygon points="540,390 568,450 634,458 588,504 600,570 540,538 480,570 492,504 446,458 512,450" fill="none" stroke="#d4a843" stroke-width="3" opacity="0.6"/>
  <text x="540" y="490" fill="#d4a843" font-family="Georgia, serif" font-size="48" text-anchor="middle" font-weight="700">★</text>
  <text x="120" y="640" fill="#9a8a6a" font-family="Arial, sans-serif" font-size="36" letter-spacing="5">LIFETIME ACHIEVEMENT</text>
  <text x="120" y="730" fill="#fdf6e3" font-family="Georgia, serif" font-size="72" font-weight="600">
    <tspan x="120" dy="0">Good Morning,</tspan>
    <tspan x="120" dy="88">Every Day</tspan>
  </text>
  <text x="120" y="950" fill="#d4a843" font-family="Georgia, serif" font-size="152" font-weight="700">241</text>
  <text x="120" y="1060" fill="#f0e6c8" font-family="Georgia, serif" font-size="54">consecutive mornings</text>
  <line x1="120" y1="1120" x2="960" y2="1120" stroke="#d4a843" stroke-width="1" opacity="0.22"/>
  <text x="120" y="1260" fill="#e8d5a3" font-family="Arial, sans-serif" font-size="46">
    <tspan x="120" dy="0">Before coffee.</tspan>
    <tspan x="120" dy="64">Before anything.</tspan>
    <tspan x="120" dy="64">That's love.</tspan>
  </text>
  <text x="120" y="1740" fill="#9a8a6a" font-family="Arial, sans-serif" font-size="28">Synthetic demo · private by default · quotes need approval</text>
  <text x="960" y="1800" fill="#9a8a6a" font-family="Arial, sans-serif" font-size="26" text-anchor="end">memorywrapped.in</text>
</svg>
