<svg xmlns="http://www.w3.org/2000/svg" width="1080" height="1920" viewBox="0 0 1080 1920">
  <defs>
    <linearGradient id="bg" x1="0" y1="0" x2="1" y2="1">
      <stop offset="0" stop-color="#0c0a06"/>
      <stop offset="0.55" stop-color="#1a1508"/>
      <stop offset="1" stop-color="#251e0a"/>
    </linearGradient>
    <filter id="glow" x="-50%" y="-50%" width="200%" height="200%">
      <feGaussianBlur stdDeviation="18" result="blur"/>
      <feMerge><feMergeNode in="blur"/><feMergeNode in="SourceGraphic"/></feMerge>
    </filter>
  </defs>
  <rect width="1080" height="1920" fill="url(#bg)"/>
  <circle cx="920" cy="240" r="270" fill="#d4a843" opacity="0.16" filter="url(#glow)"/>
  <circle cx="140" cy="1700" r="320" fill="#f0e6c8" opacity="0.10" filter="url(#glow)"/>
  <rect x="78" y="92" width="924" height="1736" rx="54" fill="rgba(255,255,255,0.03)" stroke="rgba(212,168,67,0.22)" stroke-width="1.5"/>
  <text x="120" y="180" fill="#d4a843" font-family="Arial, sans-serif" font-size="34" letter-spacing="7">MEMORYWRAPPED DEMO</text>
  <line x1="120" y1="210" x2="500" y2="210" stroke="#d4a843" stroke-width="1" opacity="0.35"/>
  <text x="960" y="180" fill="#9a8a6a" font-family="Arial, sans-serif" font-size="28" text-anchor="end">04 / 06</text>
  <text x="120" y="298" fill="#9a8a6a" font-family="Arial, sans-serif" font-size="34" letter-spacing="4">KABIR &amp; ANAYA</text>
  <text x="120" y="398" fill="#fdf6e3" font-family="Georgia, serif" font-size="76" font-weight="600">
    <tspan x="120" dy="0">Your good</tspan>
    <tspan x="120" dy="94">morning</tspan>
    <tspan x="120" dy="94">streak</tspan>
  </text>
  <!-- Sun icon suggestion with a circle -->
  <circle cx="540" cy="750" r="68" fill="none" stroke="#d4a843" stroke-width="4" opacity="0.5"/>
  <line x1="540" y1="650" x2="540" y2="630" stroke="#d4a843" stroke-width="3" opacity="0.5"/>
  <line x1="540" y1="850" x2="540" y2="870" stroke="#d4a843" stroke-width="3" opacity="0.5"/>
  <line x1="440" y1="750" x2="420" y2="750" stroke="#d4a843" stroke-width="3" opacity="0.5"/>
  <line x1="640" y1="750" x2="660" y2="750" stroke="#d4a843" stroke-width="3" opacity="0.5"/>
  <line x1="468" y1="678" x2="454" y2="664" stroke="#d4a843" stroke-width="3" opacity="0.5"/>
  <line x1="612" y1="822" x2="626" y2="836" stroke="#d4a843" stroke-width="3" opacity="0.5"/>
  <line x1="612" y1="678" x2="626" y2="664" stroke="#d4a843" stroke-width="3" opacity="0.5"/>
  <line x1="468" y1="822" x2="454" y2="836" stroke="#d4a843" stroke-width="3" opacity="0.5"/>
  <text x="120" y="1000" fill="#d4a843" font-family="Georgia, serif" font-size="152" font-weight="700">241</text>
  <text x="120" y="1110" fill="#f0e6c8" font-family="Georgia, serif" font-size="60">mornings</text>
  <line x1="120" y1="1160" x2="960" y2="1160" stroke="#d4a843" stroke-width="1" opacity="0.22"/>
  <text x="120" y="1290" fill="#e8d5a3" font-family="Arial, sans-serif" font-size="46">
    <tspan x="120" dy="0">Every single morning.</tspan>
    <tspan x="120" dy="64">Without missing one.</tspan>
    <tspan x="120" dy="64">That's commitment</tspan>
    <tspan x="120" dy="64">before the vows.</tspan>
  </text>
  <polygon points="540,1530 556,1546 540,1562 524,1546" fill="#d4a843" opacity="0.55"/>
  <text x="540" y="1620" fill="#9a8a6a" font-family="Arial, sans-serif" font-size="32" text-anchor="middle" letter-spacing="3">MORE INSIDE YOUR PACK</text>
  <text x="120" y="1740" fill="#9a8a6a" font-family="Arial, sans-serif" font-size="28">Synthetic demo · private by default · quotes need approval</text>
  <text x="960" y="1800" fill="#9a8a6a" font-family="Arial, sans-serif" font-size="26" text-anchor="end">memorywrapped.in</text>
</svg>
